<svg xmlns="http://www.w3.org/2000/svg" version="1.1" xmlns:xlink="http://www.w3.org/1999/xlink" xmlns:svgjs="http://svgjs.dev/svgjs" viewBox="0 0 5.741220505641766 4.518255864520614"><g transform="matrix(1,0,0,1,2.872890342722656,4.281934735896661)"><rect width="5.741220505641766" height="5.741220505641766" x="-2.872890342722656" y="-4.893417056457237" fill="#e9ae3f"></rect><g><path d=" M -2.427842471163727 -1.7319415218365626 L -2.271866155863377 -1.72922323831092 L -2.2751420360096644 -1.541251781410498 L -1.7262253879334324 -1.5316855143875632 L -1.729640667234881 -1.3357152720871235 L -2.278557315311113 -1.345281539110058 L -2.28179834566861 -1.159309778559641 L -2.43777466096896 -1.1620280620852834 L -2.427842471163727 -1.7319415218365626 M -1.6353215916221107 -2.2639653282658965 L -1.7364400517457808 -2.035327936262275 L -1.6466368573629129 -1.9540605610208361 L -1.729958468504817 -1.765663350009852 L -2.2707661369478966 -2.285856646538325 L -2.179355048996099 -2.492544848909599 L -1.431052300379248 -2.441515480772557 L -1.5147783853616468 -2.2522037201935587 L -1.6353215916221107 -2.2639653282658965 M -1.792323245008523 -2.279823475507389 L -2.0315805583934217 -2.302537743971075 L -1.8533987949232198 -2.1417264907372013 L -1.792323245008523 -2.279823475507389 M -1.3270840612940342 -2.7336646347935023 L -1.1726469016072958 -2.8889391134044216 L -1.066294518997077 -2.7831602369066557 L -1.3589494106408968 -2.488918645018384 L -1.8588056089089244 -2.986079364557885 L -1.7205878769518432 -3.1250464778352374 L -1.3270840612940342 -2.7336646347935023 M -0.6207675088248086 -3.021173322946741 L -0.9504994665382512 -3.2098498611343502 L -0.8216306527874471 -2.929005012788399 L -0.9997717216411898 -2.8472629820597333 L -1.293792801558073 -3.4880255001305938 L -1.1156517327043303 -3.5697675308592594 L -0.9888681748394615 -3.293467097535087 L -0.9166063547504035 -3.661101738663227 L -0.711198795765986 -3.755355304707505 L -0.8039679912961685 -3.3365010623263602 L -0.40536223679247674 -3.1200144519400763 L -0.6207675088248086 -3.021173322946741 M -0.25212552007956934 -3.1765328360164915 Q -0.3331232233912299 -3.232234021445854 -0.34293182555820245 -3.3409574840633134 L -0.13405969423272435 -3.348267255301335 Q -0.1297674553342399 -3.3113948172854086 -0.11018450506519467 -3.295069742744688 Q -0.0906015547961494 -3.2787446682039665 -0.06061990915134391 -3.2797939176639694 Q -0.03363642807101902 -3.2807382421779723 -0.016619297035217195 -3.294842044903137 Q 0.00039783400058457374 -3.308945847628301 -0.0004415655674179786 -3.3329311641441457 Q -0.001525790009421213 -3.363912197977111 -0.031102622160068316 -3.3798875226978313 Q -0.060679454310715364 -3.3958628474185515 -0.12637416116312944 -3.414576625539908 Q -0.19613637073218446 -3.4351492801095853 -0.2393623308419945 -3.4551496894200247 Q -0.2825882909518045 -3.475150098730464 -0.3155204806318546 -3.5155229966061086 Q -0.3484526703119047 -3.5558958944817527 -0.3507959941059118 -3.6228549030884847 Q -0.3531742928819189 -3.690813299883377 -0.3208913811114778 -3.7404727763971497 Q -0.2886084693410367 -3.7901322529109223 -0.22951955260142837 -3.817215456534933 Q -0.17043063586182006 -3.8442986601589437 -0.09447713356164616 -3.846956758790952 Q 0.028447613582056275 -3.8512586815769647 0.10391370687683571 -3.7963645219347617 Q 0.1793798001716151 -3.741470362292559 0.18801413924042704 -3.637708865633901 L -0.024855544837691868 -3.6302591944678784 Q -0.026974132449855415 -3.662204641507004 -0.0460224136428205 -3.677547815350565 Q -0.06507069483578548 -3.692890989194126 -0.09405295229243077 -3.691876714716123 Q -0.11603949243195483 -3.691107265112121 -0.12957625230019598 -3.677625568918037 Q -0.1431130121684372 -3.664143872723953 -0.14227361260043467 -3.6401585562081085 Q -0.14157411296043257 -3.620170792444905 -0.12557645880494822 -3.606221775937584 Q -0.10957880464946385 -3.592272759430263 -0.08622563901077857 -3.5825836080405833 Q -0.06287247337209328 -3.572894456650904 -0.01734040519288338 -3.5584781198303457 Q 0.050423027999851266 -3.5378355152966687 0.09468335127982158 -3.516870692780069 Q 0.13894367455979179 -3.4959058702634698 0.17184088925784186 -3.4565323605759852 Q 0.20473810395589181 -3.4171588508885016 0.2069065528398984 -3.35519678322257 Q 0.20910997670590498 -3.292235327368479 0.1793779978788645 -3.241164206027466 Q 0.149646019051824 -3.190093084686454 0.09119669633429622 -3.1590298158008023 Q 0.03274737361676844 -3.1279665469151507 -0.04820306962420634 -3.1251335733731422 Q -0.1711278167679088 -3.120831650587129 -0.25212552007956934 -3.1765328360164915 M 0.9336121245082674 -3.28401574749513 Q 0.8885240602331351 -3.2440962477497477 0.8219837173942641 -3.233855018581065 Q 0.7554433745553928 -3.2236137894123815 0.6742011408820412 -3.251821934827572 L 0.5825674587155865 -3.2836380988423794 L 0.5045030562875015 -3.0588049405370574 L 0.3193463376831186 -3.1230932719484215 L 0.5505875297495046 -3.789090652642758 L 0.8273779305203424 -3.692986157216586 Q 0.9076754870579573 -3.66510601349227 0.9540437259080587 -3.6172495988131494 Q 1.00041196475816 -3.5693931841340287 1.011368189213921 -3.5094852452137575 Q 1.0223244136696823 -3.449577306293486 0.9996922969993551 -3.3843945839276572 Q 0.9787001887833995 -3.3239352472405117 0.9336121245082674 -3.28401574749513 M 0.8107568698520258 -3.449994922102518 Q 0.8360130000493473 -3.5227350615542403 0.7576047977832057 -3.5499592018968076 L 0.683919981195747 -3.5755433337850038 L 0.6337357224919782 -3.4310077320172967 L 0.7074205390794367 -3.4054236001291005 Q 0.7858287413455785 -3.3781994597865332 0.8107568698520258 -3.449994922102518 M 1.337854897592841 -2.6785389800872177 L 1.1536459618747799 -2.8475569318012863 L 1.0478979458571631 -2.7885115500315165 L 0.8961097828254807 -2.9277823422439093 L 1.5621071925773211 -3.273501086606779 L 1.7286320704664484 -3.120708858257261 L 1.4406313968080693 -2.428165276977122 L 1.2881063980335148 -2.568112140996371 L 1.337854897592841 -2.6785389800872177 M 1.4031607172205423 -2.8221918600540117 L 1.5013055727254823 -3.0415718667499605 L 1.2918985200468334 -2.924278702889309 L 1.4031607172205423 -2.8221918600540117 M 1.9878721633783205 -2.5372134651237004 Q 2.079741573010726 -2.5274917588026242 2.1519469096810306 -2.470424786249947 Q 2.2241522463513346 -2.41335781369727 2.2631956614781212 -2.3169648070254296 Q 2.312750765292889 -2.1946198370188634 2.281194999822178 -2.084735881567863 Q 2.249639234351467 -1.9748519261168622 2.1472505322938114 -1.9053281626186986 L 2.0680374496808116 -2.1008947434625282 Q 2.0979787514064334 -2.1335217024224935 2.104866239227215 -2.1724551393568126 Q 2.1117537270479962 -2.2113885762911316 2.095235359109741 -2.252170232959987 Q 2.0697069722960726 -2.3151964296300362 2.009550057524735 -2.3345263444046553 Q 1.9493931427533975 -2.353856259179274 1.874317820249368 -2.323447445474758 Q 1.7983156419119557 -2.292663214317099 1.7685675408451347 -2.2369178065876887 Q 1.7388194397783137 -2.1811723988582785 1.7643478265919819 -2.118146202188229 Q 1.7808661945302378 -2.077364545519374 1.8129066517115453 -2.054198641617026 Q 1.8449471088928528 -2.031032737714679 1.8891542738378775 -2.0284391750060875 L 1.968367356450877 -1.8328725941622581 Q 1.846456946829828 -1.8115453340000145 1.747326039793525 -1.868495428557968 Q 1.648195132757222 -1.9254455231159213 1.5986400289424543 -2.0477904931224877 Q 1.5595966138156676 -2.1441834997943277 1.5717351579832235 -2.235413460582943 Q 1.5838737021507792 -2.3266434213715583 1.6430817933598154 -2.39755817255481 Q 1.7022898845688514 -2.4684729237380614 1.7996097470740746 -2.5078917563179903 Q 1.8960027537459148 -2.546935171444777 1.9878721633783205 -2.5372134651237004 M 2.276149555657584 -1.429341191397763 L 2.161149640538038 -1.4292014684675678 L 2.1614230114884196 -1.2042016345380215 L 2.0124231214639643 -1.2040206022197688 L 2.0121497505135832 -1.4290204361493153 L 1.8851498442511279 -1.4288661334351 L 1.8854596646615602 -1.1738663216482808 L 1.7284597805418322 -1.1736755694740144 L 1.7279118236590676 -1.6246752365950166 L 2.43291130330498 -1.6255317989062117 L 2.4334592601877443 -1.1745321317852098 L 2.2764593760680167 -1.1743413796109436 L 2.276149555657584 -1.429341191397763" fill="#0e1425" fill-rule="nonzero"></path></g><g clip-path="url(&quot;#SvgjsClipPath1002&quot;)"><g clip-path="url(&quot;#SvgjsClipPath100045a06280-66f8-4d1f-ab29-4ed967312d8e&quot;)"><path d=" M 0.06457196324875247 -0.3919022245343369 C 0.6657549765850368 -0.3919022245343369 1.1531058267022591 -0.8826638680741608 1.1531058267022591 -1.488202390996861 C 1.1531058267022591 -2.093740913919561 0.6657549765850368 -2.5845148265004734 0.06457196324875247 -2.5845148265004734 C -0.5366110500875318 -2.5845148265004734 -1.0239619002047542 -2.0936795687141188 -1.0239619002047542 -1.488202390996861 C -1.0239619002047542 -0.8827252132796031 -0.5365987810464434 -0.3919022245343369 0.06457196324875247 -0.3919022245343369 Z M 0.06457196324875247 -0.3547392990772835 C 0.6861338538330279 -0.3547392990772835 1.1899988332553657 -0.8622113765796384 1.1899988332553657 -1.488202390996861 C 1.1899988332553657 -2.1141934054140834 0.6861338538330279 -2.6216777519575265 0.06457196324875247 -2.6216777519575265 C -0.5569899273355231 -2.6216777519575265 -1.0608549067578603 -2.114205674455172 -1.0608549067578603 -1.488202390996861 C -1.0608549067578603 -0.86219910753855 -0.5570144654177 -0.3547392990772835 0.06457196324875247 -0.3547392990772835 Z" fill="#0e1425" transform="matrix(1,0,0,1,0,0)" fill-rule="evenodd"></path></g><g clip-path="url(&quot;#SvgjsClipPath100045a06280-66f8-4d1f-ab29-4ed967312d8e&quot;)"><path d=" M -0.10147723884294702 -0.3547392990772835 C 0.4997057744933371 -0.3547392990772835 0.9870566246105597 -0.8455009426171076 0.9870566246105597 -1.4510394655398078 C 0.9870566246105597 -2.0565779884625077 0.49970577449333753 -2.5473519010434202 -0.10147723884294702 -2.5473519010434202 C -0.7026602521792316 -2.5473519010434202 -1.189998833255365 -2.056516643257065 -1.189998833255365 -1.4510394655398078 C -1.189998833255365 -0.8455622878225499 -0.7026479831381429 -0.3547392990772835 -0.10147723884294702 -0.3547392990772835 Z M -0.10147723884294702 -0.3175763736202306 C 0.5200846517413282 -0.3175763736202306 1.0239619002047542 -0.8250484511225853 1.0239619002047542 -1.4510394655398078 C 1.0239619002047542 -2.07703047995703 0.5200846517413282 -2.5845148265004734 -0.10147723884294702 -2.5845148265004734 C -0.7230391294272224 -2.5845148265004734 -1.2269041088495598 -2.0770427489981187 -1.2269041088495598 -1.4510394655398078 C -1.2269041088495598 -0.8250361820814966 -0.7230268603861341 -0.31755183553805333 -0.10147723884294702 -0.31755183553805333 Z" fill="#0e1425" transform="matrix(1,0,0,1,0,0)" fill-rule="evenodd"></path></g><g clip-path="url(&quot;#SvgjsClipPath100045a06280-66f8-4d1f-ab29-4ed967312d8e&quot;)"><path d=" M 0.10147723884294724 -0.22466292545705335 C 0.7026602521792316 -0.22466292545705335 1.1899988332553657 -0.715498183243408 1.1899988332553657 -1.3209753609606656 C 1.1899988332553657 -1.9264525386779232 0.7026479831381431 -2.4172755274231896 0.10147723884294724 -2.4172755274231896 C -0.49969350545224883 -2.4172755274231896 -0.9870566246105593 -1.9264402696368352 -0.9870566246105593 -1.3209753609606658 C -0.9870566246105593 -0.7155104522844968 -0.4997057744933372 -0.22466292545705335 0.10147723884294724 -0.22466292545705335 Z M 0.10147723884294724 -0.1875 C 0.7230268603861341 -0.1875 1.2269041088495598 -0.6949720775023551 1.2269041088495598 -1.3209753609606658 C 1.2269041088495598 -1.946978644418977 0.7230268603861343 -2.4544507219213316 0.10147723884294724 -2.4544507219213316 C -0.52007238270024 -2.4544507219213316 -1.0239619002047542 -1.946966375377888 -1.0239619002047542 -1.3209753609606658 C -1.0239619002047542 -0.6949843465434435 -0.5200846517413283 -0.1875 0.10147723884294724 -0.1875 Z" fill="#0e1425" transform="matrix(1,0,0,1,0,0)" fill-rule="evenodd"></path></g><path d=" M -0.09641159003790334 -1.7207166855597291 L -0.2979744079203311 -1.7207166855597291 L -0.2979744079203311 -1.8959887011096663 L 0.2979504449494552 -1.8959887011096663 L 0.2979504449494552 -1.7207166855597291 L 0.09638762706702753 -1.7207166855597291 L 0.09638762706702753 -0.6690845922601063 L -0.09641159003790334 -0.6690845922601063 L -0.09641159003790334 -1.7207166855597291" fill="#0e1425" transform="matrix(1,0,0,1,0,0)" fill-rule="nonzero"></path></g></g><defs><clipPath id="SvgjsClipPath1002"><path d=" M -1.2269041088495598 -2.6216777519575265 h 2.4538082176991196 v 2.4341777519575265 h -2.4538082176991196 Z"></path></clipPath><clipPath id="SvgjsClipPath100045a06280-66f8-4d1f-ab29-4ed967312d8e"><path d=" M -1.2269041088495598 -2.6216777519575265 L 1.2269041088495598 -2.6216777519575265 L 1.2269041088495598 -0.1875 L -1.2269041088495598 -0.1875 Z"></path></clipPath></defs></svg>